<svg xmlns="http://www.w3.org/2000/svg" viewBox="0 0 96 96" fill="none">
  <g fill="#637381">
    <path d="M26 30 L30 8 L46 26 Z"/>
    <path d="M70 30 L66 8 L50 26 Z"/>
    <path d="M48 24 C66 24 74 40 74 56 C74 72 62 80 48 80 C34 80 22 72 22 56 C22 40 30 24 48 24 Z"/>
  </g>
  <g fill="#FFFFFF">
    <circle cx="39" cy="50" r="4"/>
    <circle cx="57" cy="50" r="4"/>
  </g>
  <path d="M48 60 l-4 4 4 3 4-3 Z" fill="#FFAB00"/>
  <g stroke="#FFFFFF" stroke-width="2" opacity="0.7" stroke-linecap="round">
    <path d="M44 66 L24 64"/><path d="M44 70 L26 74"/>
    <path d="M52 66 L72 64"/><path d="M52 70 L70 74"/>
  </g>
</svg>
